<?xml version="1.0" encoding="UTF-8"?>
<svg version="1.1" xmlns="http://www.w3.org/2000/svg" width="179" height="226">
<path d="M0 0 C59.07 0 118.14 0 179 0 C179 74.58 179 149.16 179 226 C119.93 226 60.86 226 0 226 C0 151.42 0 76.84 0 0 Z " fill="#FEFEFE" transform="translate(0,0)"/>
<path d="M0 0 C0.66 0 1.32 0 2 0 C4.55519754 5.15461452 7.10002109 10.31417222 9.63549805 15.47851562 C10.49889656 17.23348279 11.36507962 18.98708296 12.23413086 20.73925781 C13.48511195 23.26270221 14.72589092 25.79094508 15.96484375 28.3203125 C16.35341049 29.09867462 16.74197723 29.87703674 17.14231873 30.6789856 C19.13085235 34.76488263 20.71025638 38.39055883 21 43 C19.6875 45.875 19.6875 45.875 18 48 C17.34 48 16.68 48 16 48 C15.01 45.03 14.02 42.06 13 39 C4.09 39 -4.82 39 -14 39 C-14.99 41.97 -15.98 44.94 -17 48 C-17.556875 49.155 -18.11375 50.31 -18.6875 51.5 C-20.28360781 55.7562875 -20.50259724 59.49595554 -20 64 C-18.50256881 65.49743119 -17.01175761 65.33202693 -14.9375 65.5625 C-13.638125 65.706875 -12.33875 65.85125 -11 66 C-11 66.66 -11 67.32 -11 68 C-19.25 68 -27.5 68 -36 68 C-33 66 -33 66 -30.51245117 64.73388672 C-27.37788986 62.57067086 -26.43574025 60.68900108 -24.80078125 57.2578125 C-24.51318436 56.65752228 -24.22558746 56.05723206 -23.92927551 55.43875122 C-19.35892686 45.73160252 -15.31462128 35.77567112 -11.1875 25.875 C-9.90119473 22.79981729 -8.61353103 19.72521112 -7.32453918 16.65115356 C-6.52916396 14.75321604 -5.73553319 12.85454625 -4.94389343 10.95504761 C-4.58624405 10.09960358 -4.22859467 9.24415955 -3.86010742 8.36279297 C-3.39213997 7.24032669 -3.39213997 7.24032669 -2.91471863 6.09518433 C-2.01067879 4.02446001 -1.02896247 2.01116442 0 0 Z " fill="#413F3E" transform="translate(64,53)"/>
<path d="M0 0 C5.91957444 2.20425996 11.06601884 5.52899271 16.4375 8.8125 C17.97374023 9.73772461 17.97374023 9.73772461 19.54101562 10.68164062 C34.59322957 19.84936446 34.59322957 19.84936446 37 26 C37.68526595 32.21498145 37.7464549 37.75496314 34 43 C28.07415503 48.79415953 22.80056529 50.29071582 14.625 50.375 C8.26022669 50.26850281 4.06616357 49.95160758 -1 46 C-2 42.8125 -2 42.8125 -2 39 C-2.01160156 38.19046875 -2.02320312 37.3809375 -2.03515625 36.546875 C-2.05919989 34.36233814 -2.04457244 32.1840496 -2 30 C0 31 0 31 0.82421875 33.07421875 C1.25154297 34.36779297 1.25154297 34.36779297 1.6875 35.6875 C3.71978976 40.83843078 5.81010094 44.64515256 11 47 C17.44006094 48.01640219 22.6082393 47.90470926 28 44 C29.31794566 41.36410867 29.27893485 39.25726633 29.375 36.3125 C29.42398438 35.29800781 29.47296875 34.28351563 29.5234375 33.23828125 C28.68983289 28.08113032 26.21491777 24.70794644 22.09179688 21.52856445 C19.94871887 20.11997681 17.77547174 18.79586703 15.5625 17.5 C9.0887077 13.68922619 2.38067492 9.63512294 0.125 2.0625 C0.063125 1.0415625 0.063125 1.0415625 0 0 Z " fill="#434140" transform="translate(89,124)"/>
<path d="M0 0 C2.63167401 2.34170739 3.98730469 4.67549364 5.48046875 7.8515625 C5.92197266 8.78484375 6.36347656 9.718125 6.81835938 10.6796875 C7.49608398 12.13761719 7.49608398 12.13761719 8.1875 13.625 C8.88262695 15.09453125 8.88262695 15.09453125 9.59179688 16.59375 C13 23.84182852 13 23.84182852 13 25 C5.41 25 -2.18 25 -10 25 C-8.08153552 19.24460657 -6.14006985 13.61145444 -3.875 8 C-3.47861328 7.00033203 -3.47861328 7.00033203 -3.07421875 5.98046875 C-1.12683355 1.12683355 -1.12683355 1.12683355 0 0 Z " fill="#F8F8F8" transform="translate(62,64)"/>
<path d="M0 0 C0.495 1.98 0.495 1.98 1 4 C1.66 4 2.32 4 3 4 C2 6 2 6 0 9 C-0.7502493 10.61580116 -1.46830396 12.24671648 -2.1640625 13.88671875 C-2.5245166 14.73194092 -2.8849707 15.57716309 -3.25634766 16.44799805 C-3.70800293 17.51703369 -4.1596582 18.58606934 -4.625 19.6875 C-6.06875 23.090625 -7.5125 26.49375 -9 30 C-1.41 30 6.18 30 14 30 C14.495 31.485 14.495 31.485 15 33 C6.42 33 -2.16 33 -11 33 C-11.99 35.97 -12.98 38.94 -14 42 C-14.556875 43.155 -15.11375 44.31 -15.6875 45.5 C-17.28360781 49.7562875 -17.50259724 53.49595554 -17 58 C-15.50256881 59.49743119 -14.01175761 59.33202693 -11.9375 59.5625 C-10.638125 59.706875 -9.33875 59.85125 -8 60 C-8 60.66 -8 61.32 -8 62 C-16.25 62 -24.5 62 -33 62 C-30 60 -30 60 -27.51391602 58.73681641 C-24.36881466 56.56392614 -23.41868601 54.65444067 -21.77734375 51.2109375 C-21.34517799 50.30896133 -21.34517799 50.30896133 -20.90428162 49.38876343 C-16.46097301 39.94993742 -12.548611 30.26255898 -8.5625 20.625 C-7.72767051 18.61699745 -6.89238719 16.60918353 -6.05664062 14.6015625 C-4.03253165 9.73653361 -2.0140051 4.86921972 0 0 Z " fill="#4F4D4C" transform="translate(61,59)"/>
<path d="M0 0 C1 3 1 3 0.20239258 4.63134766 C-0.22920166 5.21964355 -0.6607959 5.80793945 -1.10546875 6.4140625 C-1.82935791 7.4182019 -1.82935791 7.4182019 -2.56787109 8.44262695 C-3.10234863 9.16281006 -3.63682617 9.88299316 -4.1875 10.625 C-5.30884388 12.17299592 -6.42993082 13.721178 -7.55078125 15.26953125 C-8.12779785 16.05924316 -8.70481445 16.84895508 -9.29931641 17.66259766 C-11.86276102 21.18577003 -14.36873682 24.7485439 -16.875 28.3125 C-17.87236459 29.72528247 -18.86976104 31.13804246 -19.8671875 32.55078125 C-23.85574671 38.20947049 -27.82131195 43.88423222 -31.78857422 49.55786133 C-35.98904725 55.56258378 -40.2068829 61.55471618 -44.44116211 67.53564453 C-47.22949527 71.47797957 -49.99946968 75.43232883 -52.75390625 79.3984375 C-53.70426758 80.76452148 -53.70426758 80.76452148 -54.67382812 82.15820312 C-55.90816814 83.93376358 -57.14004695 85.71103823 -58.36914062 87.49023438 C-58.92923828 88.29525391 -59.48933594 89.10027344 -60.06640625 89.9296875 C-60.56084229 90.64366699 -61.05527832 91.35764648 -61.56469727 92.09326172 C-62.92526442 93.90071698 -64.35883081 95.44738639 -66 97 C-66.33 96.34 -66.66 95.68 -67 95 C-60.96151478 86.16812102 -54.87627201 77.37300546 -48.69433594 68.64086914 C-44.77743703 63.1069651 -40.88447798 57.55670292 -37 52 C-32.20365723 45.14041135 -27.39099048 38.29281401 -22.55664062 31.45996094 C-19.78517298 27.53957379 -17.02711511 23.61024622 -14.28125 19.671875 C-13.6521875 18.77017578 -13.023125 17.86847656 -12.375 16.93945312 C-11.15476822 15.18918316 -9.93594317 13.43793134 -8.71875 11.68554688 C-5.92856151 7.68433907 -3.11655628 3.75820022 0 0 Z " fill="#514F4E" transform="translate(114,69)"/>
<path d="M0 0 C0.33 1.32 0.66 2.64 1 4 C1.66 4 2.32 4 3 4 C2 6 2 6 0 9 C-0.7502493 10.61580116 -1.46830396 12.24671648 -2.1640625 13.88671875 C-2.5245166 14.73194092 -2.8849707 15.57716309 -3.25634766 16.44799805 C-3.70800293 17.51703369 -4.1596582 18.58606934 -4.625 19.6875 C-6.06875 23.090625 -7.5125 26.49375 -9 30 C-1.41 30 6.18 30 14 30 C14.33 30.99 14.66 31.98 15 33 C6.42 33 -2.16 33 -11 33 C-12.209476 28.16209602 -11.39293471 26.77926922 -9.47265625 22.265625 C-9.20488876 21.62759949 -8.93712128 20.98957397 -8.66123962 20.33221436 C-7.80555138 18.30015126 -6.93431612 16.27518873 -6.0625 14.25 C-5.47877955 12.8715329 -4.89608491 11.49263094 -4.31445312 10.11328125 C-2.88816042 6.73706461 -1.44785123 3.36703704 0 0 Z " fill="#6D6B6B" transform="translate(61,59)"/>
<path d="M0 0 C2 1 2 1 2.82421875 3.07421875 C3.10910156 3.93660156 3.39398438 4.79898438 3.6875 5.6875 C5.70908677 10.85624566 7.94852364 14.45056821 13 17 C16.34798108 17.72824698 19.57812526 17.98622988 23 18 C23 18.33 23 18.66 23 19 C8.07481411 20.92853526 8.07481411 20.92853526 2.35546875 17.35546875 C1 16 1 16 0 12.8125 C0 11.554375 0 10.29625 0 9 C-0.01160156 8.19046875 -0.02320312 7.3809375 -0.03515625 6.546875 C-0.05919989 4.36233814 -0.04457244 2.1840496 0 0 Z " fill="#504F4E" transform="translate(87,154)"/>
<path d="M0 0 C6.81598387 -0.33278764 11.92122066 -0.24201565 18 3 C18 7.29 18 11.58 18 16 C16 13 16 13 14.1875 9.5 C12.27702175 6.17071069 10.62347016 4.51680146 7 3 C3.30476048 2.28076792 3.30476048 2.28076792 0 2 C0 1.34 0 0.68 0 0 Z " fill="#4D4B4A" transform="translate(105,105)"/>
<path d="M0 0 C1 4 1 4 0.00390625 5.921875 C-0.47175781 6.52515625 -0.94742188 7.1284375 -1.4375 7.75 C-1.91058594 8.36359375 -2.38367187 8.9771875 -2.87109375 9.609375 C-3.24363281 10.06828125 -3.61617187 10.5271875 -4 11 C-4.66 10.34 -5.32 9.68 -6 9 C-4.02 6.03 -2.04 3.06 0 0 Z " fill="#565554" transform="translate(53,155)"/>
<path d="M0 0 C2.26609984 4.53219967 1.92735976 6.17772925 1 11 C0.34 10.01 -0.32 9.02 -1 8 C-1.99 8.495 -1.99 8.495 -3 9 C-2.01 6.03 -1.02 3.06 0 0 Z " fill="#5B5A59" transform="translate(42,104)"/>
<path d="M0 0 C0.33 1.32 0.66 2.64 1 4 C1.66 4 2.32 4 3 4 C2 6 2 6 0 9 C-0.99 9 -1.98 9 -3 9 C-2.01 6.03 -1.02 3.06 0 0 Z " fill="#5A5857" transform="translate(61,59)"/>
</svg>
